<svg width="128" height="43" viewBox="0 0 128 43" fill="none" xmlns="http://www.w3.org/2000/svg">
<g filter="url(#filter0_ii_1073_753)">
<path d="M20.2201 4.28224L20.2386 4.28224L20.2571 4.28155L37.429 3.64565C38.4008 3.60966 39.371 3.75115 40.2921 4.06318L40.6302 4.17775C43.1839 5.04289 45.9787 4.84018 48.3808 3.61558L48.9321 3.33452C50.01 2.785 51.1985 2.48713 52.4082 2.46332L77.5337 1.96868C78.4562 1.95051 79.375 2.09211 80.2494 2.38719L85.7392 4.24003C87.2595 4.7531 88.8808 4.89285 90.4664 4.64746L95.829 3.81753C96.9794 3.6395 98.1552 3.72671 99.2667 4.07251L99.3241 4.09038C101.574 4.79038 104.004 4.62764 106.141 3.63386C107.241 3.12208 108.449 2.88556 109.661 2.94468L115.325 3.22095C116.225 3.26486 117.111 3.46053 117.946 3.79972L118.323 2.87325L117.946 3.79972L119.959 4.61726C122.112 5.49222 123.779 7.26074 124.525 9.46254L125.016 10.9136C125.306 11.7691 125.285 12.6993 124.958 13.5412L124.592 14.4815C124.332 15.1503 123.845 15.6644 123.253 15.9694C123.752 15.5607 124.1 14.975 124.204 14.3034L124.31 13.61C124.444 12.7439 124.256 11.8589 123.782 11.1218L122.941 11.6625L123.782 11.1217L123.556 10.7709C122.563 9.22678 120.762 8.40314 118.945 8.66273L118.581 8.71465C117.537 8.86386 116.58 9.38105 115.883 10.1731L116.634 10.8337L115.883 10.1731C114.609 11.6201 114.418 13.7245 115.41 15.3773L116.763 17.6327C117.585 19.0017 118.826 20.0693 120.302 20.6772C122.334 21.514 124.594 21.3958 126.494 20.4297L125.071 31.7321C124.881 33.2409 124.265 34.6643 123.295 35.8355L121.542 37.9522C120.085 39.7123 117.944 40.765 115.66 40.8448L104.448 41.2368C103.892 41.2563 103.335 41.2176 102.786 41.1214L99.34 40.5168C97.8199 40.2501 96.2586 40.3388 94.7785 40.7761L93.0698 41.281C92.3338 41.4984 91.5704 41.6089 90.803 41.6089H84.8687C84.2208 41.6089 83.5844 41.4384 83.0233 41.1147C81.5935 40.2899 79.8761 40.1262 78.3163 40.6661L75.0798 41.7864C74.7513 41.9002 74.4085 41.9676 74.0613 41.9869C73.352 42.0263 72.6462 41.8635 72.0259 41.5173L67.7412 39.1258C64.7942 37.481 61.2163 37.4336 58.2268 38.9998L55.1205 40.6273C53.9 41.2667 52.5351 41.58 51.158 41.537L13.1812 40.3502L14.237 38.4089C14.684 37.587 14.9181 36.6664 14.9181 35.7308C14.9181 34.6395 14.5995 33.5719 14.0015 32.659L12.9248 31.0157C12.0981 29.754 10.9153 28.7662 9.52642 28.1776L8.24663 27.6354C7.08194 27.1418 5.76291 27.1637 4.61523 27.6956C3.20489 28.3491 2.23415 29.6871 2.0504 31.2306L2.04592 31.2682C1.93422 30.8654 1.85417 30.4542 1.80664 30.0384L1.12964 24.1149C1.04934 23.4123 1.06256 22.7021 1.16895 22.003L2.31009 14.5041C2.48885 13.3294 2.92703 12.2093 3.5928 11.2251L5.78086 7.99064C6.93335 6.28698 8.69775 5.09268 10.7077 4.65574L11.5856 4.46488C12.1439 4.34351 12.7136 4.2823 13.285 4.28229L20.2201 4.28224ZM6.62716 38.3471C7.33387 38.568 8.09147 38.5245 8.76206 38.2339C7.92982 38.904 6.75156 39.0316 5.77624 38.4951L5.37344 38.2736L4.89152 39.1498L5.37343 38.2736C4.68293 37.8938 4.1559 37.2737 3.89236 36.5311L3.75077 36.132L3.89271 36.376C4.40349 37.2539 5.22441 37.9088 6.19385 38.2117L6.62716 38.3471Z" stroke="#50FF00" stroke-width="2"/>
</g>
<defs>
<filter id="filter0_ii_1073_753" x="0.078125" y="-3.03296" width="127.696" height="47.0256" filterUnits="userSpaceOnUse" color-interpolation-filters="sRGB">
<feFlood flood-opacity="0" result="BackgroundImageFix"/>
<feBlend mode="normal" in="SourceGraphic" in2="BackgroundImageFix" result="shape"/>
<feColorMatrix in="SourceAlpha" type="matrix" values="0 0 0 0 0 0 0 0 0 0 0 0 0 0 0 0 0 0 127 0" result="hardAlpha"/>
<feOffset dy="1"/>
<feGaussianBlur stdDeviation="2"/>
<feComposite in2="hardAlpha" operator="arithmetic" k2="-1" k3="1"/>
<feColorMatrix type="matrix" values="0 0 0 0 0.0906737 0 0 0 0 0.243333 0 0 0 0 0.00162226 0 0 0 1 0"/>
<feBlend mode="normal" in2="shape" result="effect1_innerShadow_1073_753"/>
<feColorMatrix in="SourceAlpha" type="matrix" values="0 0 0 0 0 0 0 0 0 0 0 0 0 0 0 0 0 0 127 0" result="hardAlpha"/>
<feOffset dy="-4"/>
<feGaussianBlur stdDeviation="2"/>
<feComposite in2="hardAlpha" operator="arithmetic" k2="-1" k3="1"/>
<feColorMatrix type="matrix" values="0 0 0 0 0.286275 0 0 0 0 0.568627 0 0 0 0 0.121569 0 0 0 1 0"/>
<feBlend mode="normal" in2="effect1_innerShadow_1073_753" result="effect2_innerShadow_1073_753"/>
</filter>
</defs>
</svg>
