<svg width="198" height="69" viewBox="0 0 198 69" fill="none" xmlns="http://www.w3.org/2000/svg">
<g filter="url(#filter0_d_853_1718)">
<path fill-rule="evenodd" clip-rule="evenodd" d="M33.5781 9.51222L59.3052 8.5595C60.9431 8.49884 62.5784 8.73733 64.1307 9.26325L64.6374 9.4349C68.0807 10.6014 71.8492 10.3281 75.0882 8.67687L75.9141 8.25578C77.7309 7.32959 79.7341 6.82753 81.7729 6.78739L119.416 6.04631C120.971 6.0157 122.52 6.25435 123.993 6.75171L132.218 9.52764C134.268 10.2195 136.454 10.4079 138.592 10.077L146.627 8.83361C148.576 8.53197 150.568 8.67974 152.451 9.26563L152.537 9.29241C155.553 10.2306 158.81 10.0125 161.673 8.68056C163.542 7.81135 165.594 7.40964 167.653 7.51006L176.138 7.92397C177.655 7.99797 179.149 8.32778 180.556 8.89947L183.571 10.1243C187.201 11.599 190.01 14.5798 191.267 18.291L192.003 20.4649C192.55 22.08 192.511 23.836 191.893 25.4253L191.346 26.8341C190.206 29.7651 186.918 31.231 183.976 30.1195L183.319 29.8714C182.256 29.4699 181.407 28.6467 180.972 27.597C180.194 25.7151 180.91 23.5468 182.656 22.4989L183.859 21.7775L182.983 23.2363C182.292 24.3881 182.426 25.8548 183.315 26.8619L183.508 27.08C184.047 27.6915 184.849 28.0039 185.66 27.9186C186.798 27.7988 187.712 26.9273 187.886 25.7964L188.046 24.7576C188.19 23.8212 187.987 22.8645 187.474 22.0676L187.136 21.5419C185.966 19.7215 183.842 18.7504 181.7 19.0565L181.155 19.1342C179.944 19.3073 178.834 19.9072 178.025 20.8259C176.548 22.5043 176.327 24.9452 177.477 26.8623L179.504 30.2413C180.569 32.016 182.178 33.4001 184.092 34.1881C187.568 35.6197 191.56 34.8951 194.312 32.3331L194.716 31.9566L192.153 52.3231C191.833 54.8661 190.794 57.2652 189.16 59.2393L186.533 62.4106C184.077 65.3771 180.469 67.1514 176.619 67.286L159.822 67.8733C158.884 67.9061 157.945 67.8409 157.021 67.6787L151.857 66.7729C149.807 66.4133 147.702 66.533 145.707 67.1227L143.146 67.879C141.906 68.2455 140.619 68.4316 139.326 68.4316H130.435C129.202 68.4316 127.99 68.1072 126.922 67.4908C125.156 66.4721 123.035 66.2699 121.108 66.9368L116.259 68.6152C115.636 68.8311 114.985 68.9592 114.326 68.9958C112.98 69.0705 111.641 68.7614 110.464 68.1044L104.044 64.5215C100.071 62.3037 95.2463 62.2398 91.2153 64.3517L86.5613 66.7899C84.5043 67.8676 82.2038 68.3958 79.8827 68.3233L20.5538 66.4692L23.298 61.4234C23.8482 60.4117 24.1364 59.2785 24.1364 58.1269C24.1364 56.7836 23.7443 55.4694 23.0081 54.3458L21.395 51.8838C20.3191 50.2416 18.7798 48.9561 16.9722 48.1902L15.0548 47.3777C13.6994 46.8034 12.1643 46.8288 10.8287 47.4478C9.18736 48.2084 8.05764 49.7654 7.84379 51.5617L7.82648 51.7072C7.68599 52.8873 7.93324 54.081 8.53089 55.1082L10.4112 58.3401C10.9882 59.3318 11.9156 60.0716 13.0107 60.4138L13.6599 60.6167C14.5153 60.884 15.4446 60.7678 16.2079 60.2981C17.2953 59.6289 17.8609 58.3613 17.6325 57.1051L17.4609 56.1617C17.3679 55.6502 17.1147 55.1816 16.7378 54.8236C15.7745 53.9084 14.2573 53.9279 13.3178 54.8674L12.8106 55.3746L12.9411 53.8093C13.0602 52.3792 14.3216 51.3199 15.7508 51.4499C16.5232 51.5201 17.2232 51.9334 17.6577 52.5757L18.5168 53.8458C19.238 54.9119 19.5854 56.187 19.5046 57.4715L19.4034 59.0811C19.337 60.1372 18.9691 61.152 18.3433 62.0054C16.7003 64.2458 13.6505 64.9201 11.2162 63.5812L10.6127 63.2493C9.25649 62.5034 8.22137 61.2855 7.70378 59.8268L5.19146 52.7467C4.84962 51.7833 4.61844 50.7842 4.50237 49.7686L3.48809 40.894C3.35274 39.7097 3.37502 38.5128 3.55434 37.3343L5.26401 26.0995C5.5653 24.1196 6.30385 22.2317 7.42599 20.5729L10.7042 15.7269C12.6467 12.8554 15.6205 10.8424 19.0082 10.106L20.3235 9.82005C21.2645 9.61548 22.2248 9.51231 23.1878 9.5123L33.5781 9.51222ZM182.738 61.8342L176.368 61.8342C178.469 59.8417 181.096 58.4899 183.939 57.9372L185.148 57.7023L182.738 61.8342ZM183.222 14.7816L175.416 11.0838C173.238 10.5393 171.078 12.0337 170.82 14.2635L170.486 17.144L173.068 15.207C174.311 14.2752 175.866 13.8621 177.407 14.0547L183.222 14.7816Z" fill="black"/>
</g>
<defs>
<filter id="filter0_d_853_1718" x="0.404465" y="0.0508738" width="197.308" height="68.9557" filterUnits="userSpaceOnUse" color-interpolation-filters="sRGB">
<feFlood flood-opacity="0" result="BackgroundImageFix"/>
<feColorMatrix in="SourceAlpha" type="matrix" values="0 0 0 0 0 0 0 0 0 0 0 0 0 0 0 0 0 0 127 0" result="hardAlpha"/>
<feOffset dy="-2.99641"/>
<feGaussianBlur stdDeviation="1.49821"/>
<feComposite in2="hardAlpha" operator="out"/>
<feColorMatrix type="matrix" values="0 0 0 0 0.333333 0 0 0 0 0.658824 0 0 0 0 0.14902 0 0 0 1 0"/>
<feBlend mode="normal" in2="BackgroundImageFix" result="effect1_dropShadow_853_1718"/>
<feBlend mode="normal" in="SourceGraphic" in2="effect1_dropShadow_853_1718" result="shape"/>
</filter>
</defs>
</svg>
