<svg width="133" height="47" viewBox="0 0 133 47" fill="none" xmlns="http://www.w3.org/2000/svg">
<g id="Subtract" filter="url(#filter0_d_1461_527)">
<path fill-rule="evenodd" clip-rule="evenodd" d="M22.3526 7.01891L39.5549 6.38188C40.6501 6.34132 41.7435 6.50078 42.7815 6.85244L43.1203 6.96721C45.4226 7.74721 47.9424 7.56444 50.1081 6.46036L50.6604 6.1788C51.8752 5.55951 53.2146 5.22381 54.5778 5.19697L79.7477 4.70145C80.7875 4.68098 81.8229 4.84056 82.8083 5.17311L88.3079 7.02923C89.6785 7.49181 91.1403 7.6178 92.5699 7.39656L97.942 6.56517C99.2452 6.36348 100.577 6.46228 101.837 6.85403L101.894 6.87194C103.91 7.49923 106.088 7.35339 108.003 6.46283C109.252 5.88164 110.624 5.61304 112.001 5.68018L117.674 5.95694C118.689 6.00642 119.687 6.22695 120.628 6.6092L122.644 7.42819C125.072 8.41425 126.95 10.4074 127.79 12.8888L128.283 14.3424C128.649 15.4223 128.622 16.5965 128.209 17.6591L127.843 18.6011C127.081 20.5609 124.882 21.541 122.915 20.7979L122.476 20.632C121.765 20.3635 121.197 19.8131 120.907 19.1112C120.386 17.8529 120.865 16.403 122.033 15.7024L122.837 15.22L122.252 16.1955C121.79 16.9656 121.879 17.9463 122.473 18.6197L122.602 18.7655C122.963 19.1744 123.499 19.3833 124.041 19.3262C124.802 19.2461 125.414 18.6634 125.53 17.9073L125.637 17.2127C125.733 16.5866 125.597 15.9468 125.255 15.414L125.029 15.0625C124.246 13.8453 122.826 13.196 121.393 13.4006L121.029 13.4526C120.219 13.5683 119.477 13.9695 118.936 14.5837C117.949 15.706 117.801 17.3381 118.57 18.6199L119.925 20.8793C120.637 22.066 121.713 22.9914 122.993 23.5183C125.317 24.4755 127.986 23.9911 129.826 22.278L130.097 22.0262L128.383 35.6441C128.169 37.3445 127.474 38.9487 126.381 40.2686L124.625 42.3891C122.983 44.3727 120.57 45.559 117.996 45.649L106.765 46.0418C106.138 46.0637 105.51 46.0201 104.892 45.9116L101.439 45.3059C100.069 45.0655 98.6611 45.1455 97.3267 45.5398L95.6149 46.0456C94.7855 46.2906 93.9251 46.415 93.0603 46.415H87.1154C86.2907 46.415 85.4805 46.1981 84.7662 45.786C83.5855 45.1048 82.1673 44.9696 80.8792 45.4155L77.637 46.5378C77.2201 46.6821 76.7851 46.7678 76.3445 46.7922C75.4445 46.8422 74.5488 46.6356 73.7617 46.1962L69.4695 43.8006C66.8125 42.3176 63.5867 42.2749 60.8914 43.687L57.7796 45.3173C56.4041 46.0379 54.8659 46.3911 53.3139 46.3426L13.644 45.1029L15.4789 41.729C15.8468 41.0526 16.0395 40.2949 16.0395 39.5249C16.0395 38.6266 15.7773 37.7479 15.285 36.9966L14.2065 35.3504C13.4871 34.2524 12.4578 33.3928 11.2492 32.8807L9.96713 32.3375C9.06083 31.9534 8.03442 31.9704 7.14136 32.3843C6.0439 32.8929 5.28852 33.934 5.14553 35.1351L5.13396 35.2323C5.04002 36.0214 5.20534 36.8196 5.60496 37.5064L6.86223 39.6674C7.24804 40.3305 7.86811 40.8251 8.60037 41.054L9.03445 41.1896C9.60643 41.3684 10.2278 41.2907 10.7382 40.9766C11.4652 40.5292 11.8434 39.6816 11.6907 38.8416L11.576 38.2108C11.5138 37.8688 11.3445 37.5555 11.0925 37.3161C10.4484 36.7042 9.4339 36.7172 8.80568 37.3454L8.46658 37.6845L8.5538 36.6379C8.63349 35.6817 9.47692 34.9734 10.4325 35.0603C10.9489 35.1072 11.417 35.3836 11.7075 35.8131L12.282 36.6623C12.7642 37.3751 12.9965 38.2277 12.9425 39.0866L12.8748 40.1629C12.8304 40.869 12.5844 41.5476 12.166 42.1181C11.0674 43.6162 9.02818 44.0671 7.40045 43.1718L6.99693 42.9499C6.09013 42.4511 5.398 41.6368 5.05192 40.6615L3.37207 35.9274C3.1435 35.2832 2.98892 34.6152 2.91131 33.9361L2.23312 28.0022C2.14262 27.2103 2.15751 26.41 2.27742 25.622L3.42058 18.1099C3.62203 16.786 4.11586 15.5237 4.86617 14.4145L7.0581 11.1743C8.35694 9.25433 10.3454 7.90836 12.6105 7.41593L13.49 7.22474C14.1192 7.08796 14.7613 7.01897 15.4052 7.01896L22.3526 7.01891ZM122.088 42.0036L117.829 42.0036C119.235 40.6714 120.991 39.7675 122.892 39.3979L123.7 39.2408L122.088 42.0036ZM122.412 10.5423L117.192 8.06978C115.736 7.70576 114.292 8.70492 114.119 10.1959L113.895 12.1219L115.622 10.8268C116.453 10.2037 117.493 9.9275 118.524 10.0563L122.412 10.5423Z" fill="black"/>
</g>
<defs>
<filter id="filter0_d_1461_527" x="0.17127" y="0.692637" width="131.929" height="46.1069" filterUnits="userSpaceOnUse" color-interpolation-filters="sRGB">
<feFlood flood-opacity="0" result="BackgroundImageFix"/>
<feColorMatrix in="SourceAlpha" type="matrix" values="0 0 0 0 0 0 0 0 0 0 0 0 0 0 0 0 0 0 127 0" result="hardAlpha"/>
<feOffset dy="-2.00354"/>
<feGaussianBlur stdDeviation="1.00177"/>
<feComposite in2="hardAlpha" operator="out"/>
<feColorMatrix type="matrix" values="0 0 0 0 0.85098 0 0 0 0 0.85098 0 0 0 0 0.85098 0 0 0 1 0"/>
<feBlend mode="normal" in2="BackgroundImageFix" result="effect1_dropShadow_1461_527"/>
<feBlend mode="normal" in="SourceGraphic" in2="effect1_dropShadow_1461_527" result="shape"/>
</filter>
</defs>
</svg>
