<svg width="252" height="63" viewBox="0 0 252 63" fill="none" xmlns="http://www.w3.org/2000/svg">
<g id="Group 48095770">
<path id="Vector" d="M114.061 49.023C114.061 49.023 115.807 51.447 117.455 51.447C119.103 51.447 124.05 49.41 124.05 49.41C124.05 49.41 124.098 50.719 124.68 50.719C125.262 50.719 129.141 48.586 129.141 48.586C129.141 48.586 128.123 50.623 128.802 50.768C129.481 50.914 136.706 48.635 141.07 42.767C145.434 36.9 143.474 25.553 141.506 21.14C139.77 17.246 133.602 11.781 132.875 11.345C132.148 10.908 129.917 12.703 129.917 12.703C129.917 12.703 129.702 11.491 128.767 10.763C127.832 10.036 125.504 11.442 125.504 11.442C125.504 11.442 122.158 8.72702 120.946 8.67802C119.734 8.62902 115.079 11.975 115.079 11.975C115.079 11.975 115.225 9.69603 114.061 9.64702C112.897 9.59802 109.551 12.023 109.551 12.023C109.551 12.023 109.454 9.79203 108.678 9.79203C107.902 9.79203 101.533 14.423 98.8825 19.684C95.6335 26.133 95.5365 35.928 100.144 42.62C103.995 48.214 106.593 50.039 107.563 50.136C108.533 50.233 109.115 48.778 109.115 48.778C109.115 48.778 111.879 50.669 112.897 50.669C113.915 50.671 114.061 49.023 114.061 49.023Z" fill="#A10000"/>
<path id="Vector_2" d="M118.825 32.8031C118.825 32.8031 122.862 30.1601 123.044 30.0631C123.226 29.9661 128.026 25.6021 128.281 25.2021C128.536 24.8021 130.79 20.4381 130.79 20.4381L129.772 19.3831C129.772 19.3831 131.699 20.1101 131.99 20.4011C132.281 20.6921 132.608 25.9651 132.608 26.2561C132.608 26.5471 130.571 31.5661 130.535 31.4571C130.499 31.3481 131.699 30.8751 131.699 30.8751C131.699 30.8751 130.135 32.8751 129.735 33.0571C129.335 33.2391 124.207 34.0031 124.207 34.0031L122.207 33.0211L118.825 32.8031Z" fill="#50FF00"/>
<path id="Vector_3" d="M111.988 32.9121L108.315 28.7301C108.315 28.7301 106.824 24.3301 106.497 23.7111C106.17 23.0931 106.206 22.0021 106.206 22.0021L107.224 20.9111L104.533 22.9111C104.533 22.9111 104.242 28.1481 104.169 28.2931C104.096 28.4381 105.078 31.0931 105.078 31.0931L103.441 30.3661L105.078 32.2211L109.26 33.3481L110.715 32.6211L111.988 32.9121Z" fill="#50FF00"/>
<path id="Vector_4" d="M100.968 31.312L103.041 37.022L105.405 40.477V36.04C105.405 36.04 107.514 38.731 107.878 39.168C108.242 39.604 110.351 40.768 110.351 40.768L111.478 37.168L112.715 39.823L114.57 40.95L116.025 40.332L117.407 37.277L118.825 40.695L121.189 39.931L121.916 37.422H124.644V39.75L128.826 37.531L133.954 33.349L136.5 28.803L134.173 38.004L130.1 43.75L130.282 39.859C130.282 39.859 127.555 42.95 127.191 43.096C126.827 43.241 125.718 44.187 125.718 44.187L125.554 40.732L122.608 44.005L119.444 44.805L119.044 42.259L117.262 44.805L116.571 42.55L114.425 45.096L113.116 43.678L111.516 41.35L111.661 44.769L110.061 44.114L107.115 40.732L106.897 44.078L103.442 40.587L101.478 34.586L100.968 31.312Z" fill="#50FF00"/>
<path id="Vector_5" d="M116.582 11.928C116.582 11.928 119.2 5.042 119.491 4.364C119.782 3.685 125.31 0 125.31 0C125.31 0 126.862 0.193998 127.589 1.115C128.316 2.036 128.316 6.643 128.074 7.031C127.832 7.419 123.031 8.001 122.837 8.098C122.643 8.195 119.346 11.298 119.346 11.298L116.582 11.928Z" fill="#A10000"/>
<path id="Vector_6" d="M107.005 45.8219C107.005 45.8219 100.895 44.004 99.1503 43.858C97.4043 43.712 89.5493 47.9309 88.6763 48.2219C87.8033 48.5129 85.1123 46.9859 85.1123 46.9859C85.1123 46.9859 89.9853 52.15 93.3313 52.15C96.6773 52.15 103.15 50.4039 103.441 50.0409C103.732 49.6769 106.278 47.2769 106.278 47.2769L107.005 45.8219Z" fill="#A10000"/>
<path id="Vector_7" d="M105.551 46.9858C105.551 46.9858 100.605 51.2768 100.314 52.1498C100.023 53.0228 94.2771 57.9788 92.9681 58.5598C91.6591 59.1418 86.2041 59.7958 86.2041 59.7958C86.2041 59.7958 98.9331 64.1598 103.442 61.0328C107.952 57.9048 107.879 54.8408 108.606 53.5308C109.333 52.2218 112.388 49.0208 112.315 48.6578C112.242 48.2948 105.551 46.9858 105.551 46.9858Z" fill="#A10000"/>
<path id="Vector_8" d="M134.645 46.5501C134.645 46.5501 143.3 45.2411 144.755 45.0951C146.21 44.9491 153.774 52.6591 155.302 52.8051C156.829 52.9511 161.63 52.1501 161.63 52.1501C161.63 52.1501 153.265 58.2601 149.629 58.5511C145.992 58.8421 138.646 52.5851 138.064 51.8221C137.482 51.0591 132.245 48.8041 132.245 48.8041L134.645 46.5501Z" fill="#A10000"/>
<path id="Vector_9" d="M137.627 43.8549C137.627 43.8549 145.046 40.7309 147.519 40.5859C149.992 40.4409 155.956 44.2149 156.684 43.8549C157.411 43.4949 161.63 40.1489 161.63 40.1489C161.63 40.1489 156.611 48.1499 154.938 48.5859C153.265 49.0219 143.082 47.4949 143.082 47.4949L136.499 46.9859L137.627 43.8549Z" fill="#A10000"/>
<path id="Vector_10" d="M101.211 45.294C101.211 45.294 94.2279 37.73 84.3359 37.73C74.4439 37.73 65.2789 49.077 54.2239 52.859C43.1679 56.641 21.2019 56.932 8.40087 51.695C-4.40013 46.458 0.399877 36.712 3.59988 35.257C6.79988 33.802 13.4919 33.899 15.8199 37.39C18.1469 40.881 22.0749 36.42 21.7109 34.747C21.3469 33.074 19.1649 32.892 18.0739 33.401C18.0739 33.401 19.6009 32.019 21.1289 32.019C22.6559 32.019 23.6019 35.547 22.6559 37.329C21.7099 39.111 19.2369 39.729 15.7459 39.075C12.2549 38.42 11.1269 33.111 4.87188 35.584C-1.38312 38.057 0.28988 47.731 7.81788 50.786C15.3459 53.841 38.4149 57.369 52.6709 49.707C66.9269 42.046 74.4919 35.257 85.6439 36.13C96.7969 37.003 102.713 45.343 102.713 45.343L101.211 45.294Z" fill="#A10000"/>
<path id="Vector_11" d="M140.709 44.421C140.709 44.421 147.496 37.39 153.014 36.711C158.531 36.032 171.055 46.894 176.31 48.64C181.565 50.386 199.693 50.677 204.773 45.537C209.853 40.397 220.625 22.456 231.572 23.038C242.519 23.62 249.263 32.833 249.788 35.161C250.314 37.488 247.599 42.531 244.709 43.016C241.819 43.501 241.512 36.567 241.512 36.567C241.512 36.567 240.286 40.058 240.505 42.628C240.724 45.198 248.212 44.568 250.183 42.191C252.153 39.815 251.934 32.445 248.475 28.808C245.016 25.171 235.82 18.528 225.617 23.183C215.414 27.838 207.707 44.713 191.812 47.186C175.916 49.659 159.627 35.912 154.241 35.621C148.855 35.33 140.053 42.749 140.053 42.749L140.709 44.421Z" fill="#A10000"/>
<path id="Vector_12" d="M168.252 42.6961C168.252 42.6961 172.554 44.4071 175.235 41.8061C177.916 39.2051 177.105 36.6491 180.659 36.3991C180.659 36.3991 174.362 33.7181 170.746 36.3991C167.13 39.0801 168.252 42.6961 168.252 42.6961Z" fill="#A10000"/>
</g>
</svg>
