<svg width="184" height="54" viewBox="0 0 184 54" fill="none" xmlns="http://www.w3.org/2000/svg">
<g id="Group 48095769">
<path id="Vector" d="M118.593 5.69105C118.536 5.10505 117.08 4.22004 116.639 4.26204C116.198 4.30404 114.503 4.34607 114.195 3.14107C113.887 1.93607 114.503 1.54405 114.671 1.43205C114.839 1.32005 116.436 2.38504 117.361 2.13304C118.285 1.88104 126.102 0.452056 127.167 0.396056C128.232 0.340056 137.253 8.04406 137.869 9.95006C138.485 11.8551 137.631 21.1561 136.958 22.3331C136.286 23.5101 134.52 25.1491 133.638 27.0401C132.755 28.9311 131.621 33.1761 131.074 33.3861C130.528 33.5961 123.468 35.109 122.795 35.193C122.123 35.277 111.533 32.293 108.381 32.966C105.229 33.6381 96.2077 35.81 92.8457 41.301C89.4837 46.792 87.9147 51.0791 86.4857 51.4151C85.0567 51.7511 77.9967 53.4321 76.8197 53.6001C75.6427 53.7681 66.6497 49.0611 64.1287 46.7081C61.6067 44.3551 37.9897 23.6791 34.2917 23.0061C30.5937 22.3341 20.0037 25.3591 16.6417 26.2001C13.2797 27.0401 7.5647 24.9391 5.7997 23.8471C4.0347 22.7541 2.96971 15.47 3.02571 14.63C3.08171 13.79 4.25871 11.436 3.75471 10.091C3.25072 8.74605 0.000717163 10.651 0.000717163 10.651C0.000717163 10.651 3.08272 8.46604 4.98772 9.25004C6.89272 10.034 4.03471 13.116 3.97871 14.517C3.92271 15.918 6.89272 19.56 7.50871 19.952C8.12471 20.344 20.9567 19.448 22.4137 19.336C23.8707 19.224 37.3187 15.414 40.0077 15.414C42.6967 15.414 51.9427 22.082 53.2317 23.146C54.5207 24.211 60.1797 23.314 60.7957 22.81C61.4117 22.306 61.0197 18.832 61.3557 18.327C61.6917 17.823 65.1097 17.8231 67.0707 19.2791C69.0317 20.7361 69.9287 24.602 69.9847 25.555C70.0407 26.508 67.9677 26.2271 67.9677 27.4601C67.9677 28.6931 79.3427 36.3691 80.9107 36.0331C82.4797 35.6971 90.9967 34.0161 95.3107 32.2791C99.6247 30.5421 105.397 19.504 105.397 17.374C105.397 15.244 106.742 12.779 108.535 12.107C110.328 11.435 115.707 8.96904 116.884 8.46504C118.061 7.96004 118.677 6.55905 118.593 5.69105Z" fill="#A10000"/>
<path id="Vector_2" d="M133.684 14.7672C133.606 14.6252 132.828 13.4112 132.792 13.1972C132.756 12.9832 132.56 12.4302 132.417 12.4302C132.274 12.4302 130.972 14.1242 130.865 14.5532C130.758 14.9812 130.615 19.0842 130.722 19.3692C130.829 19.6542 131.772 21.8842 132.184 21.9022C132.595 21.9202 132.578 20.6182 132.649 20.2972C132.721 19.9752 133.967 15.2822 133.684 14.7672Z" fill="#50FF00"/>
<path id="Vector_3" d="M127.007 13.0491C127.233 12.8881 128.458 9.79107 128.196 9.67207C127.934 9.55307 127.173 9.76707 127.007 9.86207C126.84 9.95707 123.725 10.7421 123.44 10.8371C123.155 10.9321 120.943 14.6181 120.515 14.9041C120.087 15.1901 116.948 16.3311 117.066 16.5211C117.185 16.7111 117.922 16.8541 117.922 16.8541C117.922 16.8541 118.184 17.8051 118.778 17.7821C119.372 17.7581 124.177 16.4741 124.438 16.2601C124.7 16.0451 126.507 13.4061 127.007 13.0491Z" fill="#50FF00"/>
<path id="Vector_4" d="M126.381 18.8022C125.962 18.5002 124.98 18.8022 124.672 19.1102C124.364 19.4182 120.789 23.8172 120.573 23.8172C120.357 23.8172 114.586 24.5462 114.11 24.8542C113.634 25.1622 108.619 28.3282 108.367 28.6362C108.115 28.9442 108.731 29.5042 108.815 29.5332C108.899 29.5612 109.431 30.2612 109.572 30.2892C109.712 30.3172 114.363 28.3562 114.587 28.3562C114.811 28.3562 122.263 29.5332 122.824 29.5332C123.384 29.5332 126.494 23.0052 126.634 22.3612C126.774 21.7162 126.886 19.1662 126.381 18.8022Z" fill="#50FF00"/>
<path id="Vector_5" d="M171.682 13.0032C171.682 13.0032 175.996 14.6842 176.389 14.7962C176.781 14.9082 178.966 13.0032 178.966 13.0032C178.966 13.0032 177.229 10.0251 178.07 9.63715C178.91 9.24915 179.919 8.12817 179.919 8.12817L178.798 10.3692C178.798 10.3692 183.729 15.4682 183.729 16.3642C183.729 17.2612 177.117 20.7352 175.828 20.0622C174.54 19.3912 171.682 13.0032 171.682 13.0032Z" fill="#A10000"/>
<path id="Vector_6" d="M56.6462 14.9361C57.3182 14.2641 56.9822 8.04413 56.6462 7.20413C56.3102 6.36313 53.8722 5.01912 53.0322 5.10312C52.1922 5.18712 44.9632 8.21312 44.2072 8.12912C43.4512 8.04512 42.4422 6.02814 42.4422 6.02814C42.4422 6.02814 42.5262 9.47414 44.1232 11.0711C45.7202 12.6681 50.4272 15.0211 52.0242 14.9371C53.6212 14.8531 55.6382 11.8271 55.6382 11.8271L56.6462 14.9361Z" fill="#A10000"/>
</g>
</svg>
