<svg width="184" height="54" viewBox="0 0 184 54" fill="none" xmlns="http://www.w3.org/2000/svg">
<g id="Group 48095768">
<path id="Vector" d="M65.1358 5.69105C65.1928 5.10505 66.6488 4.22004 67.0898 4.26204C67.5308 4.30404 69.2258 4.34607 69.5338 3.14107C69.8418 1.93607 69.2258 1.54405 69.0578 1.43205C68.8898 1.32005 67.2928 2.38504 66.3678 2.13304C65.4438 1.88104 57.6268 0.452056 56.5618 0.396056C55.4968 0.340056 46.4758 8.04406 45.8598 9.95006C45.2438 11.8551 46.0978 21.1561 46.7708 22.3331C47.4428 23.5101 49.2088 25.1491 50.0908 27.0401C50.9738 28.9311 52.1078 33.1761 52.6548 33.3861C53.2008 33.5961 60.2608 35.109 60.9338 35.193C61.6058 35.277 72.1958 32.293 75.3478 32.966C78.4998 33.6381 87.5208 35.81 90.8828 41.301C94.2448 46.792 95.8138 51.0791 97.2428 51.4151C98.6718 51.7511 105.732 53.4321 106.909 53.6001C108.086 53.7681 117.079 49.0611 119.6 46.7081C122.122 44.3551 145.739 23.6791 149.437 23.0061C153.135 22.3341 163.725 25.3591 167.087 26.2001C170.449 27.0401 176.164 24.9391 177.929 23.8471C179.694 22.7541 180.759 15.47 180.703 14.63C180.647 13.79 179.47 11.436 179.974 10.091C180.478 8.74605 183.728 10.651 183.728 10.651C183.728 10.651 180.646 8.46604 178.741 9.25004C176.836 10.034 179.694 13.116 179.75 14.517C179.806 15.918 176.836 19.56 176.22 19.952C175.604 20.344 162.772 19.448 161.315 19.336C159.858 19.224 146.41 15.414 143.721 15.414C141.032 15.414 131.786 22.082 130.497 23.146C129.208 24.211 123.549 23.314 122.933 22.81C122.317 22.306 122.709 18.832 122.373 18.327C122.037 17.823 118.619 17.8231 116.658 19.2791C114.697 20.7361 113.8 24.602 113.744 25.555C113.688 26.508 115.761 26.2271 115.761 27.4601C115.761 28.6931 104.386 36.3691 102.818 36.0331C101.249 35.6971 92.7318 34.0161 88.4178 32.2791C84.1038 30.5421 78.3318 19.504 78.3318 17.374C78.3318 15.244 76.9868 12.779 75.1938 12.107C73.4008 11.435 68.0218 8.96904 66.8448 8.46504C65.6678 7.96004 65.0518 6.55905 65.1358 5.69105Z" fill="#A10000"/>
<path id="Vector_2" d="M50.0447 14.7672C50.1227 14.6252 50.9007 13.4112 50.9367 13.1972C50.9727 12.9832 51.1687 12.4302 51.3117 12.4302C51.4547 12.4302 52.7567 14.1242 52.8637 14.5532C52.9707 14.9812 53.1137 19.0842 53.0067 19.3692C52.8997 19.6542 51.9567 21.8842 51.5447 21.9022C51.1337 21.9202 51.1507 20.6182 51.0797 20.2972C51.0077 19.9752 49.7617 15.2822 50.0447 14.7672Z" fill="#50FF00"/>
<path id="Vector_3" d="M56.7216 13.0491C56.4956 12.8881 55.2706 9.79107 55.5326 9.67207C55.7946 9.55307 56.5556 9.76707 56.7216 9.86207C56.8886 9.95707 60.0036 10.7421 60.2886 10.8371C60.5736 10.9321 62.7856 14.6181 63.2136 14.9041C63.6416 15.1901 66.7806 16.3311 66.6626 16.5211C66.5436 16.7111 65.8066 16.8541 65.8066 16.8541C65.8066 16.8541 65.5446 17.8051 64.9506 17.7821C64.3566 17.7581 59.5516 16.4741 59.2906 16.2601C59.0286 16.0451 57.2216 13.4061 56.7216 13.0491Z" fill="#50FF00"/>
<path id="Vector_4" d="M57.3479 18.8022C57.7669 18.5002 58.7489 18.8022 59.0569 19.1102C59.3649 19.4182 62.9399 23.8172 63.1559 23.8172C63.3719 23.8172 69.1429 24.5462 69.6189 24.8542C70.0949 25.1622 75.1099 28.3282 75.3619 28.6362C75.6139 28.9442 74.9979 29.5042 74.9139 29.5332C74.8299 29.5612 74.2979 30.2612 74.1569 30.2892C74.0169 30.3172 69.3659 28.3562 69.1419 28.3562C68.9179 28.3562 61.4659 29.5332 60.9049 29.5332C60.3449 29.5332 57.2349 23.0052 57.0949 22.3612C56.9549 21.7162 56.8429 19.1662 57.3479 18.8022Z" fill="#50FF00"/>
<path id="Vector_5" d="M12.047 13.0032C12.047 13.0032 7.733 14.6842 7.34 14.7962C6.948 14.9082 4.763 13.0032 4.763 13.0032C4.763 13.0032 6.5 10.0251 5.659 9.63715C4.819 9.24915 3.81 8.12817 3.81 8.12817L4.931 10.3692C4.931 10.3692 0 15.4682 0 16.3642C0 17.2612 6.612 20.7352 7.901 20.0622C9.189 19.3912 12.047 13.0032 12.047 13.0032Z" fill="#A10000"/>
<path id="Vector_6" d="M127.082 14.9361C126.41 14.2641 126.746 8.04413 127.082 7.20413C127.418 6.36313 129.856 5.01912 130.696 5.10312C131.536 5.18712 138.765 8.21312 139.521 8.12912C140.277 8.04512 141.286 6.02814 141.286 6.02814C141.286 6.02814 141.202 9.47414 139.605 11.0711C138.008 12.6681 133.301 15.0211 131.704 14.9371C130.107 14.8531 128.09 11.8271 128.09 11.8271L127.082 14.9361Z" fill="#A10000"/>
</g>
</svg>
