<svg width="133" height="47" viewBox="0 0 133 47" fill="none" xmlns="http://www.w3.org/2000/svg">
<g id="Subtract" filter="url(#filter0_d_1459_1024)">
<path fill-rule="evenodd" clip-rule="evenodd" d="M22.3526 6.41454L39.5549 5.77751C40.6501 5.73695 41.7435 5.89641 42.7815 6.24807L43.1203 6.36284C45.4226 7.14284 47.9424 6.96007 50.1081 5.85599L50.6604 5.57443C51.8752 4.95514 53.2146 4.61944 54.5778 4.5926L79.7477 4.09708C80.7875 4.07661 81.8229 4.23619 82.8083 4.56874L88.3079 6.42486C89.6785 6.88744 91.1403 7.01343 92.5699 6.79219L97.942 5.9608C99.2452 5.75911 100.577 5.85791 101.837 6.24966L101.894 6.26757C103.91 6.89486 106.088 6.74902 108.003 5.85846C109.252 5.27727 110.624 5.00866 112.001 5.07581L117.674 5.35257C118.689 5.40205 119.687 5.62258 120.628 6.00483L122.644 6.82382C125.072 7.80988 126.95 9.80298 127.79 12.2844L128.283 13.738C128.649 14.8179 128.622 15.9921 128.209 17.0547L127.843 17.9967C127.081 19.9565 124.882 20.9366 122.915 20.1935L122.476 20.0276C121.765 19.7592 121.197 19.2087 120.907 18.5068C120.386 17.2485 120.865 15.7987 122.033 15.098L122.837 14.6157L122.252 15.5911C121.79 16.3612 121.879 17.3419 122.473 18.0153L122.602 18.1612C122.963 18.57 123.499 18.7789 124.041 18.7218C124.802 18.6418 125.414 18.059 125.53 17.3029L125.637 16.6083C125.733 15.9822 125.597 15.3425 125.255 14.8096L125.029 14.4581C124.246 13.2409 122.826 12.5916 121.393 12.7962L121.029 12.8483C120.219 12.964 119.477 13.3651 118.936 13.9794C117.949 15.1016 117.801 16.7337 118.57 18.0156L119.925 20.2749C120.637 21.4616 121.713 22.387 122.993 22.9139C125.317 23.8711 127.986 23.3867 129.826 21.6736L130.097 21.4219L128.383 35.0398C128.169 36.7402 127.474 38.3443 126.381 39.6643L124.625 41.7847C122.983 43.7683 120.57 44.9547 117.996 45.0447L106.765 45.4374C106.138 45.4593 105.51 45.4157 104.892 45.3073L101.439 44.7016C100.069 44.4611 98.6611 44.5412 97.3267 44.9354L95.6149 45.4412C94.7855 45.6862 93.9251 45.8107 93.0603 45.8107H87.1154C86.2907 45.8107 85.4805 45.5937 84.7662 45.1816C83.5855 44.5004 82.1673 44.3653 80.8792 44.8111L77.637 45.9334C77.2201 46.0778 76.7851 46.1634 76.3445 46.1879C75.4445 46.2379 74.5488 46.0312 73.7617 45.5919L69.4695 43.1962C66.8125 41.7132 63.5867 41.6705 60.8914 43.0826L57.7796 44.7129C56.4041 45.4336 54.8659 45.7867 53.3139 45.7382L13.644 44.4985L15.4789 41.1246C15.8468 40.4482 16.0395 39.6905 16.0395 38.9205C16.0395 38.0223 15.7773 37.1436 15.285 36.3922L14.2065 34.746C13.4871 33.648 12.4578 32.7885 11.2492 32.2763L9.96713 31.7331C9.06083 31.3491 8.03442 31.3661 7.14136 31.7799C6.0439 32.2885 5.28852 33.3296 5.14553 34.5307L5.13396 34.6279C5.04002 35.417 5.20534 36.2152 5.60496 36.9021L6.86223 39.063C7.24804 39.7261 7.86811 40.2208 8.60037 40.4496L9.03445 40.5853C9.60643 40.764 10.2278 40.6863 10.7382 40.3722C11.4652 39.9248 11.8434 39.0772 11.6907 38.2373L11.576 37.6064C11.5138 37.2645 11.3445 36.9511 11.0925 36.7117C10.4484 36.0998 9.4339 36.1128 8.80568 36.741L8.46658 37.0802L8.5538 36.0335C8.63349 35.0773 9.47692 34.369 10.4325 34.4559C10.9489 34.5029 11.417 34.7792 11.7075 35.2087L12.282 36.0579C12.7642 36.7708 12.9965 37.6233 12.9425 38.4823L12.8748 39.5585C12.8304 40.2646 12.5844 40.9432 12.166 41.5138C11.0674 43.0118 9.02818 43.4627 7.40045 42.5675L6.99693 42.3455C6.09013 41.8468 5.398 41.0325 5.05192 40.0571L3.37207 35.323C3.1435 34.6789 2.98892 34.0108 2.91131 33.3318L2.23312 27.3978C2.14262 26.6059 2.15751 25.8056 2.27742 25.0176L3.42058 17.5055C3.62203 16.1817 4.11586 14.9193 4.86617 13.8102L7.0581 10.57C8.35694 8.64996 10.3454 7.30399 12.6105 6.81156L13.49 6.62037C14.1192 6.48359 14.7613 6.4146 15.4052 6.41459L22.3526 6.41454ZM122.088 41.3992L117.829 41.3993C119.235 40.067 120.991 39.1631 122.892 38.7936L123.7 38.6365L122.088 41.3992ZM122.412 9.93781L117.192 7.46529C115.736 7.10127 114.292 8.10043 114.119 9.59138L113.895 11.5174L115.622 10.2223C116.453 9.59924 117.493 9.32301 118.524 9.45181L122.412 9.93781Z" fill="white"/>
</g>
<defs>
<filter id="filter0_d_1459_1024" x="0.16854" y="0.0828085" width="131.934" height="46.1124" filterUnits="userSpaceOnUse" color-interpolation-filters="sRGB">
<feFlood flood-opacity="0" result="BackgroundImageFix"/>
<feColorMatrix in="SourceAlpha" type="matrix" values="0 0 0 0 0 0 0 0 0 0 0 0 0 0 0 0 0 0 127 0" result="hardAlpha"/>
<feOffset dy="-2.00626"/>
<feGaussianBlur stdDeviation="1.00313"/>
<feComposite in2="hardAlpha" operator="out"/>
<feColorMatrix type="matrix" values="0 0 0 0 0.482353 0 0 0 0 0.482353 0 0 0 0 0.482353 0 0 0 1 0"/>
<feBlend mode="normal" in2="BackgroundImageFix" result="effect1_dropShadow_1459_1024"/>
<feBlend mode="normal" in="SourceGraphic" in2="effect1_dropShadow_1459_1024" result="shape"/>
</filter>
</defs>
</svg>
