<svg width="198" height="70" viewBox="0 0 198 70" fill="none" xmlns="http://www.w3.org/2000/svg">
<g id="Subtract" filter="url(#filter0_d_853_1637)">
<path fill-rule="evenodd" clip-rule="evenodd" d="M33.6891 10.0122L59.4163 9.0595C61.0542 8.99884 62.6894 9.23733 64.2418 9.76325L64.7485 9.9349C68.1918 11.1014 71.9603 10.8281 75.1992 9.17687L76.0252 8.75578C77.842 7.82959 79.8452 7.32753 81.884 7.28739L119.527 6.54631C121.082 6.5157 122.631 6.75435 124.104 7.25171L132.329 10.0276C134.379 10.7195 136.566 10.9079 138.704 10.577L146.738 9.33361C148.687 9.03197 150.679 9.17974 152.562 9.76563L152.648 9.79241C155.664 10.7306 158.921 10.5125 161.784 9.18056C163.653 8.31135 165.705 7.90964 167.764 8.01006L176.249 8.42397C177.766 8.49797 179.26 8.82778 180.667 9.39947L183.682 10.6243C187.312 12.099 190.121 15.0798 191.378 18.791L192.114 20.9649C192.661 22.58 192.622 24.336 192.004 25.9253L191.457 27.3341C190.317 30.2651 187.029 31.731 184.087 30.6195L183.43 30.3714C182.367 29.9699 181.518 29.1467 181.083 28.097C180.305 26.2151 181.021 24.0468 182.767 22.9989L183.97 22.2775L183.094 23.7363C182.403 24.8881 182.538 26.3548 183.426 27.3619L183.619 27.58C184.158 28.1915 184.96 28.5039 185.771 28.4186C186.909 28.2988 187.823 27.4273 187.997 26.2964L188.157 25.2576C188.301 24.3212 188.098 23.3645 187.586 22.5676L187.248 22.0419C186.077 20.2215 183.953 19.2504 181.811 19.5565L181.266 19.6342C180.055 19.8073 178.945 20.4072 178.136 21.3259C176.659 23.0043 176.438 25.4452 177.588 27.3623L179.615 30.7413C180.68 32.516 182.289 33.9001 184.203 34.6881C187.679 36.1197 191.671 35.3951 194.423 32.8331L194.827 32.4566L192.264 52.8231C191.944 55.3661 190.905 57.7652 189.271 59.7393L186.644 62.9106C184.188 65.8771 180.58 67.6514 176.73 67.786L159.933 68.3733C158.995 68.4061 158.056 68.3409 157.132 68.1787L151.968 67.2729C149.918 66.9133 147.813 67.033 145.818 67.6227L143.258 68.379C142.017 68.7455 140.73 68.9316 139.437 68.9316H130.546C129.313 68.9316 128.101 68.6072 127.033 67.9908C125.267 66.9721 123.146 66.7699 121.219 67.4368L116.37 69.1152C115.747 69.3311 115.096 69.4592 114.438 69.4958C113.091 69.5705 111.752 69.2614 110.575 68.6044L104.155 65.0215C100.182 62.8037 95.3574 62.7398 91.3263 64.8517L86.6724 67.2899C84.6154 68.3676 82.3149 68.8958 79.9937 68.8233L20.6648 66.9692L23.4091 61.9234C23.9593 60.9117 24.2475 59.7785 24.2475 58.6269C24.2475 57.2836 23.8553 55.9694 23.1191 54.8458L21.5061 52.3838C20.4302 50.7416 18.8909 49.4561 17.0833 48.6902L15.1659 47.8777C13.8105 47.3034 12.2754 47.3288 10.9398 47.9478C9.29844 48.7084 8.16872 50.2654 7.95487 52.0617L7.93756 52.2072C7.79708 53.3873 8.04432 54.581 8.64197 55.6082L10.5223 58.8401C11.0993 59.8318 12.0267 60.5716 13.1218 60.9138L13.771 61.1167C14.6264 61.384 15.5557 61.2678 16.319 60.7981C17.4064 60.1289 17.9719 58.8613 17.7436 57.6051L17.572 56.6617C17.479 56.1502 17.2258 55.6816 16.8489 55.3236C15.8856 54.4084 14.3684 54.4279 13.4289 55.3674L12.9217 55.8746L13.0522 54.3093C13.1713 52.8792 14.4327 51.8199 15.8619 51.9499C16.6342 52.0201 17.3342 52.4334 17.7688 53.0757L18.6279 54.3458C19.3491 55.4119 19.6965 56.687 19.6157 57.9715L19.5145 59.5811C19.4481 60.6372 19.0801 61.652 18.4544 62.5054C16.8114 64.7458 13.7616 65.4201 11.3272 64.0812L10.7238 63.7493C9.36758 63.0034 8.33246 61.7855 7.81487 60.3268L5.30254 53.2467C4.96071 52.2833 4.72953 51.2842 4.61346 50.2686L3.59917 41.394C3.46382 40.2097 3.4861 39.0128 3.66543 37.8343L5.37509 26.5995C5.67639 24.6196 6.41493 22.7317 7.53707 21.0729L10.8152 16.2269C12.7577 13.3554 15.7316 11.3424 19.1193 10.606L20.4346 10.3201C21.3756 10.1155 22.3359 10.0123 23.2989 10.0123L33.6891 10.0122ZM182.849 62.3342L176.479 62.3342C178.581 60.3417 181.207 58.9899 184.05 58.4372L185.259 58.2023L182.849 62.3342ZM183.333 15.2816L175.527 11.5838C173.349 11.0393 171.189 12.5337 170.931 14.7635L170.597 17.644L173.179 15.707C174.422 14.7752 175.977 14.3621 177.519 14.5547L183.333 15.2816Z" fill="black"/>
</g>
<defs>
<filter id="filter0_d_853_1637" x="0.515549" y="0.550874" width="197.308" height="68.9557" filterUnits="userSpaceOnUse" color-interpolation-filters="sRGB">
<feFlood flood-opacity="0" result="BackgroundImageFix"/>
<feColorMatrix in="SourceAlpha" type="matrix" values="0 0 0 0 0 0 0 0 0 0 0 0 0 0 0 0 0 0 127 0" result="hardAlpha"/>
<feOffset dy="-2.99641"/>
<feGaussianBlur stdDeviation="1.49821"/>
<feComposite in2="hardAlpha" operator="out"/>
<feColorMatrix type="matrix" values="0 0 0 0 0.333333 0 0 0 0 0.658824 0 0 0 0 0.14902 0 0 0 1 0"/>
<feBlend mode="normal" in2="BackgroundImageFix" result="effect1_dropShadow_853_1637"/>
<feBlend mode="normal" in="SourceGraphic" in2="effect1_dropShadow_853_1637" result="shape"/>
</filter>
</defs>
</svg>
