<svg width="18" height="21" viewBox="0 0 18 21" fill="none" xmlns="http://www.w3.org/2000/svg">
<path d="M2.66333 20.5C2.11333 20.5 1.64233 20.3043 1.25033 19.913C0.858997 19.521 0.66333 19.05 0.66333 18.5V4.5H2.66333V18.5H13.6633V20.5H2.66333ZM6.66333 16.5C6.11333 16.5 5.64266 16.3043 5.25133 15.913C4.85933 15.521 4.66333 15.05 4.66333 14.5V2.5C4.66333 1.95 4.85933 1.479 5.25133 1.087C5.64266 0.695667 6.11333 0.5 6.66333 0.5H15.6633C16.2133 0.5 16.6843 0.695667 17.0763 1.087C17.4677 1.479 17.6633 1.95 17.6633 2.5V14.5C17.6633 15.05 17.4677 15.521 17.0763 15.913C16.6843 16.3043 16.2133 16.5 15.6633 16.5H6.66333ZM6.66333 14.5H15.6633V2.5H6.66333V14.5Z" fill="white"/>
</svg>
