<svg width="25" height="25" viewBox="0 0 25 25" fill="none" xmlns="http://www.w3.org/2000/svg">
<path d="M2.88363 24.6502C2.24196 24.6502 1.69246 24.4215 1.23513 23.9642C0.778571 23.5076 0.550293 22.9585 0.550293 22.3168V5.98351C0.550293 5.34185 0.778571 4.79235 1.23513 4.33501C1.69246 3.87846 2.24196 3.65018 2.88363 3.65018H13.2961L10.9628 5.98351H2.88363V22.3168H19.217V14.2085L21.5503 11.8752V22.3168C21.5503 22.9585 21.322 23.5076 20.8655 23.9642C20.4081 24.4215 19.8586 24.6502 19.217 24.6502H2.88363ZM15.9211 4.32101L17.5836 5.95435L9.88363 13.6543V15.3168H11.517L19.2461 7.58768L20.9086 9.22101L12.5086 17.6502H7.55029V12.6918L15.9211 4.32101ZM20.9086 9.22101L15.9211 4.32101L18.8378 1.40435C19.3045 0.937679 19.8637 0.704346 20.5155 0.704346C21.1665 0.704346 21.7156 0.937679 22.1628 1.40435L23.7961 3.06685C24.2433 3.51407 24.467 4.05851 24.467 4.70018C24.467 5.34185 24.2433 5.88629 23.7961 6.33351L20.9086 9.22101Z" fill="white"/>
</svg>
