<svg width="37" height="37" viewBox="0 0 37 37" fill="none" xmlns="http://www.w3.org/2000/svg">
<g id="material-symbols:mail">
<path id="Vector" d="M6.5 30.5552C5.675 30.5552 4.969 30.2617 4.382 29.6747C3.795 29.0877 3.501 28.3812 3.5 27.5552V9.55518C3.5 8.73018 3.794 8.02418 4.382 7.43718C4.97 6.85018 5.676 6.55618 6.5 6.55518H30.5C31.325 6.55518 32.0315 6.84918 32.6195 7.43718C33.2075 8.02518 33.501 8.73118 33.5 9.55518V27.5552C33.5 28.3802 33.2065 29.0867 32.6195 29.6747C32.0325 30.2627 31.326 30.5562 30.5 30.5552H6.5ZM18.5 20.0552L30.5 12.5552V9.55518L18.5 17.0552L6.5 9.55518V12.5552L18.5 20.0552Z" fill="white"/>
</g>
</svg>
